# xmcd
#
# Track frame offsets: 
#        150
#        12891
#        23248
#        35590
#        45717
#        59122
#        68824
#        84479
#        97168
#        109153
#        123067
#        137651
#        151250
#        161476
#        174188
#        186255
#        198730
#        208654
#        220833
#
# Disc length: 3158 seconds
#
# Revision: 1
# Processed by: cddbd v1.5.2PL0 Copyright (c) Steve Scherf et al.
# Submitted via: ExactAudioCopy v0.99pb5
#
DISCID=0d0c5413
DTITLE=Various Artist - DIE SCHÖNSTEN COUNTRY and WESTERN HITS - VOL. 3
DYEAR=2001
DGENRE=Folk
TTITLE0=DAVE DUDLEY - Me And Ole C.B.
TTITLE1=LINDA MANNING - Bonjour Tristesse (Hello Sadness)
TTITLE2=BOBBY BARE - Roses Are Red My Love
TTITLE3=BUD LOGAN - I Was On My Way
TTITLE4=DAVE DUDLEY - Counterfeit Cowboy
TTITLE5=GEORGE KENT - Let´s Just Pretend
TTITLE6=KAREN O´DONNELL - I Know What It´s All About Now, Mama
TTITLE7=BOBBY BARE - Rosalie
TTITLE8=DAVE DUDLEY - South Bound And Down
TTITLE9=GEORGE KENT - Doogie Ray
TTITLE10=BOBBY LORD - Freedom
TTITLE11=RICK JOHNSON - I´ve Heard These Very Lines Before
TTITLE12=DAVID PRICE - Jack Knife
TTITLE13=THOMAS FRANK - Hey Billy, My Old Friend
TTITLE14=RONNIE ROGERS - It´s Good To Know She´s There
TTITLE15=RICK JOHNSON - Warm Sweet Love
TTITLE16=RONNIE ROGERS - The Fool On The Stool
TTITLE17=RICK PILGREEN - How Come It Took So Long To Say Goodbye
TTITLE18=TOM STEWART - At The End Of The Day
EXTD=
EXTT0=
EXTT1=
EXTT2=
EXTT3=
EXTT4=
EXTT5=
EXTT6=
EXTT7=
EXTT8=
EXTT9=
EXTT10=
EXTT11=
EXTT12=
EXTT13=
EXTT14=
EXTT15=
EXTT16=
EXTT17=
EXTT18=
PLAYORDER=
